<?xml version="1.0" standalone="no"?>
<!DOCTYPE svg PUBLIC "-//W3C//DTD SVG 20010904//EN"
 "http://www.w3.org/TR/2001/REC-SVG-20010904/DTD/svg10.dtd">
<svg version="1.0" xmlns="http://www.w3.org/2000/svg"
 width="338.000000pt" height="100.000000pt" viewBox="0 0 338.000000 100.000000"
 preserveAspectRatio="xMidYMid meet">

<g transform="translate(0.000000,100.000000) scale(0.100000,-0.100000)"
fill="#000000" stroke="none">
<path d="M380 728 c1 -72 37 -162 68 -166 20 -3 22 1 22 40 0 81 -41 178 -76
178 -10 0 -14 -13 -14 -52z"/>
<path d="M546 758 c-39 -60 -63 -174 -42 -196 22 -21 71 51 85 121 15 84 -9
127 -43 75z"/>
<path d="M237 683 c-15 -14 -5 -36 39 -83 62 -67 134 -100 134 -62 0 55 -143
175 -173 145z"/>
<path d="M665 661 c-34 -20 -115 -105 -115 -120 0 -18 20 -22 54 -11 37 12
136 110 136 134 0 22 -38 20 -75 -3z"/>
<path d="M1772 668 c-30 -30 -3 -72 44 -66 34 4 53 31 38 56 -13 21 -64 28
-82 10z"/>
<path d="M1630 480 l0 -180 40 0 40 0 0 180 0 180 -40 0 -40 0 0 -180z"/>
<path d="M1910 480 l0 -180 40 0 c28 0 40 4 40 14 0 13 4 13 28 0 82 -42 172
23 172 126 0 43 -33 104 -65 118 -36 17 -86 15 -113 -4 l-22 -15 0 60 0 61
-40 0 -40 0 0 -180z m174 4 c16 -15 20 -33 17 -64 -3 -19 -38 -50 -57 -50 -22
0 -54 38 -54 63 0 55 59 87 94 51z"/>
<path d="M1025 628 c-3 -7 -4 -83 -3 -168 l3 -155 65 -3 c97 -5 149 5 176 35
13 14 24 36 24 49 0 33 -20 73 -41 79 -16 5 -15 8 7 30 33 33 32 84 -1 115
-21 20 -37 24 -125 28 -80 4 -101 2 -105 -10z m159 -64 c41 -16 5 -64 -48 -64
-23 0 -26 4 -26 35 0 32 2 35 29 35 16 0 36 -3 45 -6z m17 -140 c21 -25 -1
-49 -50 -52 -41 -3 -41 -3 -41 32 0 35 1 36 39 36 23 0 44 -6 52 -16z"/>
<path d="M1391 557 c-62 -31 -88 -123 -53 -187 47 -87 184 -93 227 -10 l16 30
-41 0 c-22 0 -49 -5 -59 -11 -26 -17 -71 -3 -71 21 0 18 7 20 91 20 l91 0 -6
38 c-13 72 -60 112 -131 112 -22 0 -51 -6 -64 -13z m90 -57 c36 -20 23 -40
-26 -40 -34 0 -45 4 -45 15 0 9 10 20 23 25 29 11 26 11 48 0z"/>
<path d="M1770 435 l0 -135 40 0 40 0 0 135 0 135 -40 0 -40 0 0 -135z"/>
<path d="M2262 545 c-57 -48 -61 -150 -9 -211 29 -33 96 -44 132 -20 22 14 25
15 25 1 0 -11 11 -15 40 -15 l40 0 0 135 0 135 -40 0 c-30 0 -40 -4 -40 -16 0
-14 -2 -14 -22 0 -34 24 -91 20 -126 -9z m132 -64 c26 -29 18 -82 -15 -100
-24 -13 -29 -13 -53 2 -19 13 -26 26 -26 49 0 60 57 90 94 49z"/>
<path d="M2550 435 l0 -135 40 0 40 0 0 78 c0 87 16 122 54 122 36 0 45 -19
48 -110 l3 -85 40 0 40 0 0 90 c0 101 -14 147 -51 164 -35 16 -81 14 -109 -5
-23 -15 -25 -15 -25 0 0 12 -10 16 -40 16 l-40 0 0 -135z"/>
<path d="M2901 545 c-50 -43 -58 -138 -16 -201 28 -43 101 -58 143 -28 21 15
22 14 22 -14 0 -16 -7 -35 -15 -42 -21 -18 -66 -16 -80 4 -17 23 -85 22 -85
-1 1 -64 120 -112 189 -76 68 35 76 56 80 229 l3 154 -46 0 c-35 0 -46 -4 -46
-16 0 -14 -2 -14 -22 0 -35 25 -91 20 -127 -9z m131 -62 c26 -23 24 -78 -4
-97 -30 -21 -44 -20 -68 4 -55 55 14 146 72 93z"/>
<path d="M178 534 c-32 -10 -21 -41 21 -57 91 -37 204 -30 182 11 -15 29 -154
60 -203 46z"/>
<path d="M636 515 c-55 -19 -66 -33 -41 -52 41 -31 215 2 215 41 0 8 -7 17
-16 20 -27 11 -118 6 -158 -9z"/>
<path d="M270 409 c-51 -23 -90 -56 -90 -76 0 -21 75 -16 123 8 50 25 87 57
87 76 0 20 -68 16 -120 -8z"/>
<path d="M570 417 c0 -37 122 -107 185 -107 37 0 32 33 -8 64 -60 46 -177 74
-177 43z"/>
<path d="M368 343 c-59 -61 -96 -163 -59 -163 20 0 77 59 99 102 46 93 24 126
-40 61z"/>
<path d="M530 355 c0 -60 91 -185 124 -172 23 9 20 26 -15 95 -44 89 -109 134
-109 77z"/>
<path d="M461 346 c-31 -37 -19 -202 17 -214 17 -5 42 59 42 110 0 90 -29 141
-59 104z"/>
</g>
</svg>
